<?xml version="1.0" standalone="no"?>
<!DOCTYPE svg PUBLIC "-//W3C//DTD SVG 1.1//EN" "http://www.w3.org/Graphics/SVG/1.1/DTD/svg11.dtd" >
<svg xmlns="http://www.w3.org/2000/svg">
<metadata></metadata>
<defs>
<font id="peach_milkregular" horiz-adv-x="774" >
<font-face units-per-em="2048" ascent="1638" descent="-410" />
<missing-glyph horiz-adv-x="512" />
<glyph horiz-adv-x="2048" />
<glyph horiz-adv-x="2048" />
<glyph unicode="&#xd;" horiz-adv-x="2048" />
<glyph unicode=" "  horiz-adv-x="512" />
<glyph unicode="&#x09;" horiz-adv-x="512" />
<glyph unicode="&#xa0;" horiz-adv-x="512" />
<glyph unicode="!" horiz-adv-x="337" d="M61 -2q4 51 7 92l4 94h180v-202zM86 326v1181l205 23l-39 -1204h-166z" />
<glyph unicode="&#x22;" horiz-adv-x="655" d="M94 1585l211 6v-207q-2 -47 -10 -88q-8 -37 -21.5 -74.5t-40.5 -66.5l-86 88q16 23 25.5 46.5t13.5 43.5q6 23 9 47l-97 2zM373 1411l2 203h211l-6 -205q-4 -47 -13 -88q-8 -37 -23.5 -75t-41.5 -66l-84 90q16 23 26.5 46t16.5 44q6 23 8 47z" />
<glyph unicode="#" horiz-adv-x="1335" d="M47 590l320 8l39 342l-359 4l21 205l354 -12q2 106 6 190q2 37 4 71t4 61.5t4 44t4 16.5q4 0 37 1t72 3q45 2 100 6l-20 -381l213 -4l51 385h184q-10 -106 -18 -189q-4 -35 -7 -68.5t-5 -60t-3 -42.5l-1 -17q2 0 37.5 -2t78.5 -4q51 -4 115 -6l-14 -213l-248 12l-33 -350 l248 -15l-14 -182l-256 -12l-43 -483l-179 -4l13 473h-217l-78 -469q-57 -6 -101 -11q-37 -4 -67.5 -5t-28.5 3q0 2 5 23.5t11.5 56.5t13.5 79t15 91l41 246l-283 4zM582 616l223 -16l10 328h-199z" />
<glyph unicode="$" horiz-adv-x="761" d="M41 199l326 -21q45 4 82 17q31 10 57 33.5t31 64.5q4 41 3 73.5t-1 55.5q-2 27 -2 49q-2 31 -13 55q-10 20 -27.5 38t-52.5 18t-68.5 1t-60.5 5q-33 2 -59 6q-53 12 -92 43q-35 27 -63.5 75t-24.5 128q2 80 3 151.5t-1 126.5q-2 66 -4 121q-2 53 14 96q14 35 47 66 t103 33q20 0 39.5 1t41.5 1v221h193l-4 -213q35 2 66.5 3t54.5 3q27 2 47 2l4 -238l-299 11q-35 -4 -59 -19q-23 -12 -41.5 -36.5t-18.5 -67.5q-2 -43 -2 -84t-2 -74q-2 -37 -2 -70q-2 -27 6 -49q8 -18 26.5 -34.5t55.5 -20.5q43 -4 83 -5t69 -1q35 0 65 2q39 2 72 -18 q29 -16 51.5 -57.5t22.5 -125.5t-1 -156.5t-4 -127.5q-2 -66 -2 -119q-4 -39 -26 -70q-18 -27 -54 -50.5t-102 -29.5l-22 -2l6 -190l-195 -8l4 196l-245 -4z" />
<glyph unicode="%" horiz-adv-x="643" d="M25 -94q-2 -2 12 68.5t40.5 186t60.5 265t71 305.5q84 367 192 834l172 18l-389 -1730q-41 16 -75 28q-29 10 -54.5 19.5t-29.5 5.5zM33 1278h180q-2 0 0 28.5t4 63.5q2 41 6 94l-190 17v-203zM395 -8l191 -17v203h-180l-5 -94q-2 -41 -6 -92z" />
<glyph unicode="&#x26;" horiz-adv-x="1026" d="M8 397q10 53 34 112.5t53.5 114t59.5 97.5t50 61q-43 59 -76 121q-29 53 -52.5 113.5t-23.5 116.5q0 55 8.5 106t25.5 94t44 73t62 42q23 8 65.5 14t91.5 4t99.5 -14t90.5 -40t63.5 -74t19.5 -117q-6 -106 -24.5 -180t-40 -120.5t-41 -70t-30.5 -31.5q35 -53 69 -113.5 t62 -113.5q33 -63 66 -125l109 205l168 -101l-177 -272l193 -209l-115 -133l-207 168q-35 -37 -84 -64q-43 -23 -106.5 -42t-149.5 -19t-148.5 42t-101 103.5t-53 130t-4.5 121.5zM248 346q-2 -45 9 -70.5t28.5 -38t37 -15.5t35.5 -3q39 0 91.5 27.5t91.5 52.5 q-16 51 -40 95t-50.5 83t-53 76t-49.5 74q-4 4 -18.5 -21.5t-31.5 -68.5t-32.5 -94.5t-17.5 -96.5zM248 1174.5q-4 -46.5 13.5 -99.5t70.5 -102q78 74 98.5 135t8 103t-47 63.5t-69.5 15.5q-27 -6 -48.5 -37.5t-25.5 -78z" />
<glyph unicode="'" horiz-adv-x="389" d="M94 1585l211 6v-207q-2 -47 -10 -88q-8 -37 -21.5 -74.5t-40.5 -66.5l-86 88q16 23 25.5 46.5t13.5 43.5q6 23 9 47l-97 2z" />
<glyph unicode="(" horiz-adv-x="598" d="M9 750.5q-1 113.5 3 220t15 186.5q8 59 26.5 111.5t45 97.5t56 82t60.5 68q70 70 156 120l90 -141q-37 -25 -70 -61.5t-59.5 -80.5t-47 -92.5t-32.5 -91.5q-8 -29 -14.5 -95t-10.5 -154.5t-5 -187.5t0 -193.5t3 -175t8 -130.5q8 -76 51.5 -141t90.5 -112q55 -55 125 -103 l-90 -141q-70 27 -134.5 72t-115.5 98t-84 106.5t-37 93.5q-2 8 -6 67.5t-9.5 150t-9.5 202t-5 225z" />
<glyph unicode=")" horiz-adv-x="598" d="M8 -123q70 47 125 103q47 47 90 112.5t51 140.5q6 49 8.5 130t3.5 175.5t0 193.5t-5.5 187.5t-10.5 155t-14 94.5q-12 43 -32.5 91.5t-47 92.5t-59.5 80.5t-70 61.5l90 141q86 -51 156 -120q59 -59 115.5 -148.5t72.5 -210.5q10 -80 16.5 -177t8.5 -198.5t0 -202 t-7 -185.5t-12.5 -150.5t-17.5 -96.5q-14 -47 -48 -107t-83 -119.5t-109.5 -109t-130.5 -75.5z" />
<glyph unicode="*" horiz-adv-x="991" d="M68 1227l47 213l223 -39l-4 211l213 12l47 -201l211 70l76 -174l-185 -80l99 -217l-158 -98l-129 221l-86 -248l-195 43l60 217z" />
<glyph unicode="+" horiz-adv-x="913" d="M16 756l334 8l21 401l188 -12q2 0 2 -28.5t1 -70.5t2 -91.5t1 -91.5t-1 -71l-1 -28q-2 0 41 -3t96 -5q61 -4 142 -8v-213l-283 -17l-16 -342l-213 4l4 324l-307 35z" />
<glyph unicode="," horiz-adv-x="389" d="M84 197l211 6v-207q-2 -47 -10 -88q-8 -37 -21.5 -75t-40.5 -66l-86 88q16 23 25.5 46t13.5 44q6 23 8 47l-96 2z" />
<glyph unicode="-" horiz-adv-x="819" d="M27 573l4 224l721 32l-13 -243z" />
<glyph unicode="." horiz-adv-x="337" d="M61 -2q4 51 7 92l4 94h180v-202z" />
<glyph unicode="/" horiz-adv-x="567" d="M-47 -98q-2 -2 12.5 68.5t41 186t60 265t70.5 305.5q84 367 193 834l172 18l-389 -1731q-41 16 -76 29q-29 10 -54.5 19.5t-29.5 5.5z" />
<glyph unicode="0" horiz-adv-x="802" d="M66 240l2 995q2 55 20 98q16 37 51 69t101 34t124 2t103 -2q53 -2 96 -4q49 -8 88 -31q33 -20 60.5 -60.5t27.5 -109.5v-98.5t-1 -145.5t-2 -174t-1 -182q-2 -213 -4 -461q0 -33 -11 -63.5t-30.5 -55t-47.5 -40t-60 -15.5q-41 -2 -100.5 -1t-116.5 3q-68 2 -138 2 q-98 16 -132 80.5t-29 159.5zM248 1169l20 -931q0 -14 6 -27q4 -10 13.5 -19.5t25.5 -11.5t44 -2t57 2q33 2 69 4q16 -2 31 4q12 4 21.5 16.5t13.5 37.5q0 12 1 59t1 117.5t-1 155.5t-3 174q-4 205 -8 456q-4 12 -11 23q-4 8 -13 15t-21 7h-103q-37 0 -76 2 q-35 -6 -53 -24.5t-14 -57.5z" />
<glyph unicode="1" horiz-adv-x="598" d="M27 1243l206 180l197 7v-1440l-207 -15l15 1149l-86 -61z" />
<glyph unicode="2" horiz-adv-x="729" d="M8 138v85v234q-4 82 21 147q20 55 72.5 98t154.5 37q14 -2 33 -2h80q23 0 35 11.5t18 27.5q8 16 8 39q-2 84 -2 156v196q0 20 -12.5 31.5t-26.5 20.5q-16 8 -37 12h-28q-33 0 -72 6q-23 2 -33 -8t-14 -25q-6 -16 -6 -37l-4 -135l-179 -2q2 2 2 35t-2 74q-2 47 -4 104 q-4 53 8 94q10 35 38 66t87 33q57 2 112.5 -1t98.5 -8q51 -6 97 -10q43 -6 79 -28q31 -18 56.5 -55.5t25.5 -102.5v-144t-1 -160t-3 -136.5t-8 -73.5q-4 -14 -15.5 -43t-31.5 -58.5t-50 -50t-73 -18.5q-47 2 -73.5 2t-43.5 -2q-18 -2 -24 -4q-23 -8 -39 -19 q-16 -10 -27.5 -26.5t-11.5 -40.5v-69t2 -83q2 -49 4 -102l418 2l-19 -217q-168 0 -301 2h-111t-97 1t-70 1h-27l-1 20q-1 19 -2 51.5t-1 74.5z" />
<glyph unicode="3" horiz-adv-x="743" d="M-4 1221q0 59 16 106q14 41 46 74t96 35q125 4 194 0q39 -2 70 -4q59 -6 106 -29q41 -20 72 -58t27 -110t-7.5 -146.5t-5.5 -138t-4 -107.5t-4 -52q-4 -8 -9 -27t-21.5 -38t-50.5 -38.5t-93 -30.5q63 0 105 -27.5t65 -62.5q27 -39 41 -88q0 -39 2 -86q2 -41 2 -97v-124 q-2 -70 -32.5 -104.5t-69.5 -51.5q-45 -18 -101 -18q-37 0 -82 2q-39 0 -92 1t-112 1q-61 0 -92 28.5t-44 63.5q-14 41 -14 94v201l158 2q0 -33 2 -61q2 -25 5 -51.5t9 -42.5q10 -31 37 -41q10 -6 25 -7q31 0 61 -2q25 -2 52.5 -3t47.5 1q20 0 32.5 10.5t19.5 20.5 q8 12 10 29q0 16 -2 41q-2 23 -4 55.5t-6 79.5t-34 71.5t-65 34.5q-39 12 -90 15l-2 241q72 10 118 26.5t62 45.5q8 14 10.5 56t2.5 90.5v92.5v62t-7.5 29.5t-17.5 19.5t-27 13q-31 4 -57 8q-23 4 -47.5 6t-40.5 6q-16 2 -26.5 -7t-18.5 -20q-8 -12 -14 -30l-7 -152l-182 6z " />
<glyph unicode="4" horiz-adv-x="806" d="M8 641l162 803l219 8l-180 -782q55 2 100 4q37 2 69 3t32 3v20q0 21 1 52.5t2 71.5t1 83l4 226l176 16l8 -465l137 -4l-8 -219h-125l-39 -461l-174 8l13 453q-109 -2 -191 -2h-68.5h-60.5t-43 1l-16 1q0 2 -3.5 29.5t-7.5 62.5q-4 39 -8 88z" />
<glyph unicode="5" horiz-adv-x="745" d="M20 610l11 826l598 -13l-8 -188q-115 -2 -201 -4q-37 0 -72 -1t-61.5 -2t-40 -1t-8.5 0q2 0 2 -31t-1 -77t-2 -100t-2.5 -100.5t-2.5 -78t-1 -33.5h25t55.5 -2t69.5 -4t65 -6q49 -6 87 -35t64 -62.5t39 -64.5t15 -41q0 -6 2 -22.5t4 -52.5t1 -95.5t-5 -153.5 q-4 -96 -46 -151.5t-87 -83.5q-55 -35 -123 -45l-362 -27l-8 205q66 2 125 6q51 2 103 4t83 4t48 18.5t28 34.5q10 23 14 50q2 27 2 59v64.5t-2 76.5t-23.5 62.5t-46.5 34.5q-31 12 -67 18z" />
<glyph unicode="6" horiz-adv-x="739" d="M16 1208q-4 61 11 111q12 41 42.5 77t92.5 40q61 4 138 3t146 -3q82 -2 164 -6l-4 -195l-293 10h-29.5t-39 -8t-32.5 -27.5t-11 -60.5q2 -43 4 -104.5t4 -116.5q2 -66 4 -133l215 -9q59 -6 107 -30q41 -23 73.5 -67t28.5 -122t-6 -151.5t-2 -132.5q-2 -68 0 -129 q0 -37 -21 -68q-16 -27 -55 -50.5t-113 -31.5t-121 -9t-75 1q-33 2 -47 8q-41 12 -74 41q-29 23 -52.5 65t-27.5 107zM221 618l8 -362q4 -16 13 -29q6 -10 16 -20t27 -10q14 -2 28.5 -1t24.5 1h24q25 2 46 14q16 10 30.5 30.5t14.5 59.5v244q-4 18 -13 33q-8 12 -22.5 24 t-38.5 16q-51 8 -82 5.5t-76 -5.5z" />
<glyph unicode="7" horiz-adv-x="675" d="M14 94l408 1137l-397 6q-2 55 -5 100q-2 37 -3 69t-3 34l24 1q25 1 66 2t95.5 2t109.5 3q129 2 297 6l6 -233l-397 -1227z" />
<glyph unicode="8" horiz-adv-x="735" d="M8 980q-2 69 2 134q4 78 10 164q8 43 29 78q16 29 45 53.5t76 26.5q45 2 100.5 2h102.5q55 0 110 -2q39 -14 72 -37q27 -20 49.5 -54t24.5 -85t2 -124v-139q0 -78 -2 -159q-6 -29 -19 -52q-10 -23 -31.5 -43t-58.5 -30q39 0 63.5 -22.5t39 -50.5t19.5 -52l5 -23v-40v-98 v-124.5v-124.5q-2 -57 -27.5 -91t-56.5 -50q-37 -23 -82 -29q-31 -2 -71 -4q-35 -2 -87.5 -3t-119.5 1q-68 0 -106 24.5t-54 53.5q-20 35 -23 78q-2 66 -4 133q-2 55 -3 118.5t1 110.5q0 47 21.5 84t46.5 62q29 28 68 51q-29 14 -54 37q-23 18 -44 46.5t-32 69.5 q-10 41 -12 110zM188 897q2 -37 70 -53q41 -10 81 -6t71 16q10 4 18 11t14 18q6 10 11 24q2 4 3 46t3 94.5t3 100.5t1 66q0 16 -11.5 28.5t-25.5 21.5q-16 8 -37 14q-23 4 -45 6q-41 4 -76 0q-16 -2 -28.5 -12t-19.5 -21.5t-12 -21.5t-5 -15q0 -4 -3 -50t-6.5 -102 t-4.5 -105.5t-1 -59.5zM204 408.5q1 -31.5 2 -68.5t1 -70q-2 -20 4 -34q4 -14 13 -24.5t26 -10.5h44t54.5 1t48 2t25.5 1q10 2 32.5 19.5t22.5 45.5v50t-1 76t-2 72t-1 36q-2 10 -16.5 32.5t-36.5 38.5q-10 6 -31.5 9.5t-46.5 4.5t-46.5 -1t-29.5 -6q-16 -10 -34.5 -36 t-22.5 -42q-4 -12 -5 -38t0 -57.5z" />
<glyph unicode="9" horiz-adv-x="720" d="M6 424l176 -10q-2 -27 -2 -54v-48t2 -46q2 -23 12.5 -36t22.5 -21q14 -8 33 -14h129q33 0 50 16t26 37q8 23 10 53l-4 383q-51 0 -105 -2q-47 -2 -102 -3t-107 1q-53 0 -80.5 22.5t-39.5 51.5q-14 33 -17 73v439q0 53 22.5 85.5t51.5 51.5q33 23 74 33q37 0 84 2 q41 0 94 1t119 1q63 0 96 -34t47 -75q16 -47 14 -106q6 -227 13 -426q2 -84 4 -171t4 -166t4 -144.5t2 -104.5q0 -82 -25.5 -124t-58.5 -62q-37 -23 -84 -27h-278q-66 0 -102 27.5t-52 62.5q-20 39 -25 92zM196 1005.5q-1 -38.5 1 -67.5q0 -29 11 -43t23 -21q14 -8 35 -6 l185 -2l-2 303q0 25 -7.5 38.5t-17.5 21.5t-25 10h-145q-20 0 -30.5 -11t-14.5 -24q-6 -14 -8 -33q0 -47 -2 -90q-2 -37 -3 -75.5z" />
<glyph unicode=":" horiz-adv-x="337" d="M61 -2q4 51 7 92l4 94h180v-202zM78 918v202l190 -16q-4 -53 -6 -94q-2 -35 -4 -63.5t0 -28.5h-180z" />
<glyph unicode=";" horiz-adv-x="337" d="M78 918v202l190 -16q-4 -53 -6 -94q-2 -35 -4 -63.5t0 -28.5h-180zM84 197l211 6v-207q-2 -47 -10 -88q-8 -37 -21.5 -75t-40.5 -66l-86 88q16 23 25.5 46t13.5 44q6 23 8 47l-96 2z" />
<glyph unicode="=" horiz-adv-x="952" d="M86 311l12 244l713 12l-4 -223zM98 858l4 223l721 33l-12 -244z" />
<glyph unicode="?" horiz-adv-x="827" d="M49 1372q6 47 36 90t105 56q147 25 249 13.5t136 -22.5q18 -6 47 -22.5t57 -44t48.5 -67.5t17.5 -93q-2 -53 -6 -138t-10 -168t-12 -149.5t-12 -83.5q-2 -4 -9.5 -24.5t-20.5 -45t-36 -45t-53 -26.5q-33 -6 -51.5 -9t-28.5 -7q-12 -4 -17 -6q-20 -8 -34 -21 q-12 -10 -21.5 -27.5t-5.5 -39.5q4 -25 5 -49.5t3 -47.5q2 -25 4 -49l-200 -8v192q0 51 14 93q12 35 42 68.5t85 43.5q27 4 46 9.5t32 9.5l24 6q18 8 31 22q10 12 19.5 32t9.5 48q0 25 1 83.5t4 120.5t4 113.5t1 63.5q-2 18 -16.5 44t-53.5 24q-20 -2 -45.5 -1t-50.5 1h-57 q-35 2 -49.5 -19.5t-16.5 -54.5q-2 -29 -1 -64.5t5 -68.5q4 -37 8 -78l-180 -8l-39 235q-16 66 -8 119zM246 -4l190 -16v202h-180l-4 -94q-2 -41 -6 -92z" />
<glyph unicode="@" horiz-adv-x="1175" d="M54 1075q-1 117 1 193q4 113 45 174t93 90q57 35 133 39h100q53 0 133 1t193 3t175 -41t91 -94q35 -61 41 -140q4 -264 8 -487q2 -96 2 -191.5v-178.5v-146.5t-2 -93.5q-4 -61 -27.5 -100.5t-53.5 -61t-56.5 -29.5t-36.5 -8q-12 -2 -39 -2q-23 -2 -66 -2t-114 -2 q-72 -2 -116 27.5t-66 66.5q-29 43 -39 98q-6 45 -13 99q-4 45 -10 104.5t-8 124.5q-4 66 26.5 101.5t67.5 52.5q43 20 98 22l275 13l-23 561q-2 27 -13 45t-28 30q-18 14 -39 25q-98 -2 -180 -2h-141.5t-102.5 2t-53 -13.5t-31.5 -36t-16.5 -39.5t-5 -26v-55t1 -139 t3 -194.5t5 -224.5t7 -228.5t8.5 -205.5t10.5 -155.5t12 -79.5q25 -59 55.5 -86.5t57.5 -27.5q166 2 337 3t345 1l8 -193q-156 -4 -299 -6q-61 -2 -125 -3t-124 -2t-114.5 -1h-93.5q-80 0 -130 42t-78.5 99.5t-39 114.5t-12.5 86q-2 18 -5 99t-7 198t-9.5 255t-9.5 273 t-5 252z" />
<glyph unicode="A" d="M53 0l125 1432h92.5h106.5t102 -2.5t82 -4.5l170 -1425h-176q-6 49 -15.5 122t-18.5 148.5t-19 145t-23 110.5l-176 27q-29 -117 -40 -259t-34 -294h-176z" />
<glyph unicode="B" horiz-adv-x="825" d="M83 732q-1 62 -1 123q0 287 12 564q96 13 196 19q58 3 112 4q40 0 79 -2h11q55 0 100 -19q41 -16 78 -55t45 -113q6 -77 7 -143v-42q0 -41 -1 -75q-2 -59 -6 -110q-12 -35 -35 -62q-20 -23 -56 -44t-89 -25q-55 -4 -94.5 -5.5t-65.5 -1.5q-31 0 -51 3l260 -58 q51 -8 90 -31q34 -17 62 -49q24 -28 25 -73q0 -6 -1 -13q-4 -53 -9.5 -126.5t-11.5 -141.5q-8 -80 -14 -162q-4 -23 -20 -41q-14 -16 -43 -30.5t-80 -16.5q-53 -4 -131 -7t-154 -7q-88 -4 -182 -8q-29 397 -32 748z" />
<glyph unicode="C" d="M66 240l24 977q2 31 21 59q16 23 49 47.5t92 38.5t129 26.5t133.5 22.5t112.5 16.5t69 6.5l-10 -220l-338 -40q-27 -2 -49 -19q-18 -14 -34.5 -43t-20.5 -82q-2 -35 -3 -103.5t-1 -151.5t1 -172t3 -163.5t7 -127t11 -64.5q10 -16 19.5 -29.5t23.5 -23t38 -14.5t60 -5 q37 0 91.5 4t103.5 8q57 6 119 15l12 -172l-360 -33q-24 -2 -46 -2q-235 0 -257 244z" />
<glyph unicode="D" horiz-adv-x="784" d="M76 4l22 1440l434 -27q53 -14 95 -51q35 -31 63 -85q27 -50 27 -129v-11q0 -43 -3 -110.5t-6 -147.5t-6.5 -168t-7.5 -174q-8 -201 -20 -426q-12 -35 -37 -62q-23 -23 -61 -41q-35 -16 -87 -16h-12z" />
<glyph unicode="E" horiz-adv-x="747" d="M72 1434q103 5 211 5q55 0 111 -1q168 -4 321 -4v-154h-461q-2 -29 -2 -72q0 -34 1 -74q3 -94 7 -191t10 -176t9 -101h385v-154l-385 -51v-25q0 -59 9 -141t11 -141h416v-154h-615z" />
<glyph unicode="F" horiz-adv-x="722" d="M72 1427l649 13l-8 -193l-449 -12l17 -530l266 -17l-4 -145l-254 -8l14 -515l-201 -24z" />
<glyph unicode="G" horiz-adv-x="770" d="M70 256v641q0 18 1 73.5t4 118t8 118t11 73.5q10 29 50 51.5t97.5 38.5t124 28.5t129 20.5t112.5 11.5t77 3.5v-205q-18 0 -70.5 -7.5t-110 -15.5t-108.5 -17t-69 -11q-39 -6 -58.5 -35t-19.5 -68q-10 -96 -18.5 -199.5t-10.5 -209.5q-1 -27 -1 -54q0 -79 5 -156 q6 -104 25 -200q8 -49 42 -71.5t76 -25.5q8 -1 16 -1q34 0 71 11q45 13 77 36v282q-10 14 -28.5 21.5t-42 12.5t-46 8t-36.5 10q0 8 2 30.5t5 46t7 45t10 31.5q23 3 54 3h16q41 -1 82 -5t77 -12t54 -16q0 -20 2 -67.5t4 -109t6 -129t6.5 -129t4.5 -109.5t2 -67v-24 q-55 -10 -120 -19.5t-133 -14.5q-56 -4 -112 -4h-22q-68 1 -125 11q-43 8 -68 29.5t-38 54.5t-17 77t-4 95z" />
<glyph unicode="H" horiz-adv-x="778" d="M72 1356.5q0 60.5 2 60.5q4 0 30.5 -1t55.5 -1q35 -2 76 -2l38 -692l218 -12l61 735h147l-4 -1424l-170 -4l-43 525l-192 12l-11 -545q-51 -6 -90 -10q-33 -4 -59 -5h-9q-16 0 -13 3q2 2 1 63.5t-4.5 162t-7.5 228.5t-8 260t-8 260t-7 227t-3 159.5z" />
<glyph unicode="I" horiz-adv-x="380" d="M66 0q4 352 9 706.5t17 729.5h207v-1436h-233z" />
<glyph unicode="J" horiz-adv-x="686" d="M2 188q25 2 59 2q29 0 74 -2t105 -12q18 -3 33 -3q35 0 57 17q32 23 49 54q18 37 20 86l-26 1097l184 5q20 -242 35 -459q6 -92 11 -190.5t8 -189.5t4 -170v-31q0 -59 -3 -105q-8 -115 -54 -175.5t-99 -86.5q-61 -33 -137 -33l-312 20z" />
<glyph unicode="K" horiz-adv-x="786" d="M70 1427l180 33l8 -614l371 602l116 -141l-368 -590l338 -598l-162 -127l-283 618l-4 -622h-180z" />
<glyph unicode="L" horiz-adv-x="698" d="M72 0q-1 106 -1 214q0 242 6 490q9 358 19 732h185v-1252h407q2 -16 4 -38.5t3 -48t1 -51.5v-46h-624z" />
<glyph unicode="M" horiz-adv-x="1140" d="M70 1413l184 27l350 -684l252 684h166l55 -1452l-186 12l-14 936l-218 -453h-133l-252 512l-24 -995h-168z" />
<glyph unicode="N" horiz-adv-x="825" d="M66 1432l192 -9l283 -936l20 973l201 -24l-29 -1452l-209 8l-262 854l31 -850l-209 4z" />
<glyph unicode="O" horiz-adv-x="802" d="M66 240l2 995q2 55 20 98q16 37 51 69t101 34t124 2t103 -2q53 -2 96 -4q49 -8 88 -31q33 -20 60.5 -60.5t27.5 -109.5v-98.5t-1 -145.5t-2 -174t-1 -182q-2 -213 -4 -461q0 -33 -11 -63.5t-30.5 -55t-47.5 -40t-60 -15.5q-27 -1 -63 -1h-37q-60 1 -117 3q-68 2 -138 2 q-98 16 -132 80q-30 56 -30 136q0 12 1 24z" />
<glyph unicode="P" horiz-adv-x="694" d="M51 1432q49 6 111 12q64 6 130 8h33q49 0 97 -4q64 -6 118 -27.5t89 -60.5t41 -100q12 -118 12.5 -235t-12.5 -234q-6 -63 -52.5 -110.5t-106.5 -78.5t-126 -46q-58 -13 -102 -13h-11v-543h-172z" />
<glyph unicode="Q" horiz-adv-x="823" d="M59 1176q-3 29 -3 55q0 40 7 74q10 49 45 90t109 41h358q43 -6 80 -29q31 -20 56.5 -62t27.5 -118q0 -37 1 -100.5t3 -140.5t3.5 -163t1.5 -170q2 -197 4 -422q2 -16 2 -31q0 -32 -8 -62q-13 -44 -31 -77q-23 -37 -49 -69l102 -213l-129 -82l-166 280l-231 11h-6 q-55 0 -85 36q-32 39 -45.5 87.5t-14.5 87.5t-1 37t-1 37.5t-4 105t-6 150.5t-5 173q-8 207 -15 474z" />
<glyph unicode="R" horiz-adv-x="735" d="M61 1243q-1 38 -1 70q0 66 3 112q31 2 78 3.5t98.5 2.5t101.5 1h85q37 0 79 -13.5t79 -38t61.5 -61.5t24.5 -82v-436q0 -45 -16.5 -85t-43 -74t-61.5 -61.5t-74 -48.5q23 -55 49.5 -118.5t54 -129t55.5 -131t52 -124.5q-8 -8 -28.5 -16.5t-45 -15.5t-47 -14.5 t-33.5 -11.5l-251 539v-510h-170q0 72 -5.5 186.5t-11.5 249.5t-13 280.5t-12.5 279.5t-7.5 247z" />
<glyph unicode="S" horiz-adv-x="761" d="M41 199l326 -21q45 4 82 17q31 10 57 33.5t31 64.5q3 33 3 60v13q-1 32 -1 56q-2 27 -2 49q-2 31 -13 55q-10 20 -27.5 38t-52.5 18t-68.5 1t-60.5 5q-33 2 -59 6q-53 12 -92 43q-36 27 -64 75q-25 42 -24 109v19q2 80 3 152v45q0 44 -1 81q-2 66 -4 121v12q0 46 14 84 q14 35 47 66t103 33q68 2 144.5 4t141.5 6l152 8l4 -238l-299 11q-35 -4 -59 -19q-23 -12 -41.5 -36.5t-18.5 -67.5q-2 -43 -2 -84t-2 -74q-2 -37 -2 -70q-2 -27 6 -49q8 -18 26.5 -34.5t55.5 -20.5q43 -4 83 -5t69 -1q35 0 65 2h7q35 0 65 -18q29 -16 51.5 -57.5 t22.5 -125.5t-1 -156.5t-4 -127.5q-2 -66 -2 -119q-4 -41 -26 -74q-18 -29 -54 -51.5t-102 -24.5l-452 -8z" />
<glyph unicode="T" horiz-adv-x="765" d="M23 1231v43v61.5t1 62t3 44.5l714 -12q2 -29 4 -56q2 -23 4.5 -48.5t2.5 -43.5v-27h-301q0 -322 12 -637t12 -620h-201v1233h-251z" />
<glyph unicode="U" horiz-adv-x="782" d="M75 190q1 38 1 48q8 334 12 596q2 111 3 218t1 191t-1 136.5t-3 52.5q-6 2 22.5 5t63.5 7q41 4 98 8q0 -301 2 -547v-206.5t1 -188.5t1 -145.5v-77.5q0 -37 3.5 -59.5t15.5 -36t37.5 -17.5t68.5 -4t65.5 18.5t33.5 40.5q10 27 12 62l16 1161l177 8q2 -301 6 -555 q2 -109 3 -217t3 -203.5t3 -169t1 -110.5v-9q-1 -68 -29 -107q-30 -42 -69 -64q-45 -25 -103 -33q-27 0 -67 2q-35 2 -89.5 2t-130.5 4q-72 2 -104.5 36t-43.5 75q-10 38 -10 72v7z" />
<glyph unicode="V" horiz-adv-x="749" d="M39 1401l164 51l131 -1102l86 557q16 104 31.5 203.5t29 177.5t22.5 125t11 47q4 -2 38 -7t75 -11q47 -8 104 -15l-268 -1431l-299 -8z" />
<glyph unicode="W" horiz-adv-x="1175" d="M45 1423l180 21l94 -1077l193 1073l209 -4l106 -1055l86 1087q53 -2 97 -2q37 -2 68.5 -2h39.5q1 0 1 -5q0 -13 -4 -59q-5 -64 -16.5 -167t-27.5 -235t-33 -269q-39 -324 -92 -733l-264 12l-86 869l-141 -873l-289 4z" />
<glyph unicode="X" horiz-adv-x="747" d="M49 35l133 649l-133 729l172 39l119 -623l184 603l191 -23l-213 -717l153 -680l-161 -12l-129 512l-144 -512z" />
<glyph unicode="Y" horiz-adv-x="663" d="M16 1427l162 29l144 -493l167 469l164 -19l-123 -397q-23 -74 -45 -145.5t-38.5 -129t-26.5 -92.5l-10 -35v-28q0 -27 -1 -72t-1 -101.5v-113.5q-2 -137 -2 -311l-168 2l-13 657z" />
<glyph unicode="Z" horiz-adv-x="733" d="M43 -4l4 221l436 1014q-119 0 -211 2q-41 0 -78.5 1t-66.5 2t-47 2l-19 1v201l619 -13l4 -188l-432 -1051l432 17v-213z" />
<glyph unicode="[" horiz-adv-x="571" d="M20 1624l445 33l-4 -230l-221 -2l-23 -1468l275 -16l-5 -193l-456 -8z" />
<glyph unicode="\" horiz-adv-x="567" d="M-49 1579l172 -18q109 -467 192 -834q37 -156 71 -305.5t59.5 -265t41 -186t13.5 -68.5q-4 4 -30 -5.5t-54 -19.5q-35 -12 -76 -29z" />
<glyph unicode="]" horiz-adv-x="571" d="M20 -59l275 16l-23 1468l-221 2l-4 230l445 -33l-11 -1884l-456 8z" />
<glyph unicode="_" horiz-adv-x="1161" d="M51 -256l4 223l1016 21l-12 -244h-1008z" />
<glyph unicode="a" d="M53 0l125 1432h92.5h106.5t102 -2.5t82 -4.5l170 -1425h-176q-6 49 -15.5 122t-18.5 148.5t-19 145t-23 110.5l-176 27q-29 -117 -40 -259t-34 -294h-176z" />
<glyph unicode="b" horiz-adv-x="825" d="M83 732q-1 62 -1 123q0 287 12 564q96 13 196 19q58 3 112 4q40 0 79 -2h11q55 0 100 -19q41 -16 78 -55t45 -113q6 -77 7 -143v-42q0 -41 -1 -75q-2 -59 -6 -110q-12 -35 -35 -62q-20 -23 -56 -44t-89 -25q-55 -4 -94.5 -5.5t-65.5 -1.5q-31 0 -51 3l260 -58 q51 -8 90 -31q34 -17 62 -49q24 -28 25 -73q0 -6 -1 -13q-4 -53 -9.5 -126.5t-11.5 -141.5q-8 -80 -14 -162q-4 -23 -20 -41q-14 -16 -43 -30.5t-80 -16.5q-53 -4 -131 -7t-154 -7q-88 -4 -182 -8q-29 397 -32 748z" />
<glyph unicode="c" d="M66 240l24 977q2 31 21 59q16 23 49 47.5t92 38.5t129 26.5t133.5 22.5t112.5 16.5t69 6.5l-10 -220l-338 -40q-27 -2 -49 -19q-18 -14 -34.5 -43t-20.5 -82q-2 -35 -3 -103.5t-1 -151.5t1 -172t3 -163.5t7 -127t11 -64.5q10 -16 19.5 -29.5t23.5 -23t38 -14.5t60 -5 q37 0 91.5 4t103.5 8q57 6 119 15l12 -172l-360 -33q-24 -2 -46 -2q-235 0 -257 244z" />
<glyph unicode="d" horiz-adv-x="784" d="M76 4l22 1440l434 -27q53 -14 95 -51q35 -31 63 -85q27 -50 27 -129v-11q0 -43 -3 -110.5t-6 -147.5t-6.5 -168t-7.5 -174q-8 -201 -20 -426q-12 -35 -37 -62q-23 -23 -61 -41q-35 -16 -87 -16h-12z" />
<glyph unicode="e" horiz-adv-x="747" d="M72 1434q103 5 211 5q55 0 111 -1q168 -4 321 -4v-154h-461q-2 -29 -2 -72q0 -34 1 -74q3 -94 7 -191t10 -176t9 -101h385v-154l-385 -51v-25q0 -59 9 -141t11 -141h416v-154h-615z" />
<glyph unicode="f" horiz-adv-x="722" d="M72 1427l649 13l-8 -193l-449 -12l17 -530l266 -17l-4 -145l-254 -8l14 -515l-201 -24z" />
<glyph unicode="g" horiz-adv-x="770" d="M70 256v641q0 18 1 73.5t4 118t8 118t11 73.5q10 29 50 51.5t97.5 38.5t124 28.5t129 20.5t112.5 11.5t77 3.5v-205q-18 0 -70.5 -7.5t-110 -15.5t-108.5 -17t-69 -11q-39 -6 -58.5 -35t-19.5 -68q-10 -96 -18.5 -199.5t-10.5 -209.5q-1 -27 -1 -54q0 -79 5 -156 q6 -104 25 -200q8 -49 42 -71.5t76 -25.5q8 -1 16 -1q34 0 71 11q45 13 77 36v282q-10 14 -28.5 21.5t-42 12.5t-46 8t-36.5 10q0 8 2 30.5t5 46t7 45t10 31.5q23 3 54 3h16q41 -1 82 -5t77 -12t54 -16q0 -20 2 -67.5t4 -109t6 -129t6.5 -129t4.5 -109.5t2 -67v-24 q-55 -10 -120 -19.5t-133 -14.5q-56 -4 -112 -4h-22q-68 1 -125 11q-43 8 -68 29.5t-38 54.5t-17 77t-4 95z" />
<glyph unicode="h" horiz-adv-x="778" d="M72 1356.5q0 60.5 2 60.5q4 0 30.5 -1t55.5 -1q35 -2 76 -2l38 -692l218 -12l61 735h147l-4 -1424l-170 -4l-43 525l-192 12l-11 -545q-51 -6 -90 -10q-33 -4 -59 -5h-9q-16 0 -13 3q2 2 1 63.5t-4.5 162t-7.5 228.5t-8 260t-8 260t-7 227t-3 159.5z" />
<glyph unicode="i" horiz-adv-x="380" d="M66 0q4 352 9 706.5t17 729.5h207v-1436h-233z" />
<glyph unicode="j" horiz-adv-x="686" d="M2 188q25 2 59 2q29 0 74 -2t105 -12q18 -3 33 -3q35 0 57 17q32 23 49 54q18 37 20 86l-26 1097l184 5q20 -242 35 -459q6 -92 11 -190.5t8 -189.5t4 -170v-31q0 -59 -3 -105q-8 -115 -54 -175.5t-99 -86.5q-61 -33 -137 -33l-312 20z" />
<glyph unicode="k" horiz-adv-x="786" d="M70 1427l180 33l8 -614l371 602l116 -141l-368 -590l338 -598l-162 -127l-283 618l-4 -622h-180z" />
<glyph unicode="l" horiz-adv-x="698" d="M72 0q-1 106 -1 214q0 242 6 490q9 358 19 732h185v-1252h407q2 -16 4 -38.5t3 -48t1 -51.5v-46h-624z" />
<glyph unicode="m" horiz-adv-x="1140" d="M70 1413l184 27l350 -684l252 684h166l55 -1452l-186 12l-14 936l-218 -453h-133l-252 512l-24 -995h-168z" />
<glyph unicode="n" horiz-adv-x="825" d="M66 1432l192 -9l283 -936l20 973l201 -24l-29 -1452l-209 8l-262 854l31 -850l-209 4z" />
<glyph unicode="o" horiz-adv-x="802" d="M66 240l2 995q2 55 20 98q16 37 51 69t101 34t124 2t103 -2q53 -2 96 -4q49 -8 88 -31q33 -20 60.5 -60.5t27.5 -109.5v-98.5t-1 -145.5t-2 -174t-1 -182q-2 -213 -4 -461q0 -33 -11 -63.5t-30.5 -55t-47.5 -40t-60 -15.5q-27 -1 -63 -1h-37q-60 1 -117 3q-68 2 -138 2 q-98 16 -132 80q-30 56 -30 136q0 12 1 24z" />
<glyph unicode="p" horiz-adv-x="694" d="M51 1432q49 6 111.5 12t129.5 8h33q49 0 97 -4q65 -6 118.5 -27.5t88.5 -60.5t41 -100q12 -118 12 -235t-12 -234q-6 -63 -52.5 -110.5t-106.5 -78.5t-126 -46q-58 -13 -102 -13h-11v-543h-172z" />
<glyph unicode="q" horiz-adv-x="823" d="M59 1176q-3 29 -3 55q0 40 7 74q10 49 45 90t109 41h358q43 -6 80 -29q31 -20 56.5 -62t27.5 -118q0 -37 1 -100.5t3 -140.5t3.5 -163t1.5 -170q2 -197 4 -422q2 -16 2 -31q0 -32 -8 -62q-13 -44 -31 -77q-23 -37 -49 -69l102 -213l-129 -82l-166 280l-231 11h-6 q-55 0 -85 36q-32 39 -45.5 87.5t-14.5 87.5t-1 37t-1 37.5t-4 105t-6 150.5t-5 173q-8 207 -15 474z" />
<glyph unicode="r" horiz-adv-x="735" d="M61 1243q-1 38 -1 70q0 66 3 112q31 2 78 3.5t98.5 2.5t101.5 1h85q37 0 79 -13.5t79 -38t61.5 -61.5t24.5 -82v-436q0 -45 -16.5 -85t-43 -74t-61.5 -61.5t-74 -48.5q23 -55 49.5 -118.5t54 -129t55.5 -131t52 -124.5q-8 -8 -28.5 -16.5t-45 -15.5t-47 -14.5 t-33.5 -11.5l-251 539v-510h-170q0 72 -5.5 186.5t-11.5 249.5t-13 280.5t-12.5 279.5t-7.5 247z" />
<glyph unicode="s" horiz-adv-x="761" d="M41 199l326 -21q45 4 82 17q31 10 57 33.5t31 64.5q3 33 3 60v13q-1 32 -1 56q-2 27 -2 49q-2 31 -13 55q-10 20 -27.5 38t-52.5 18t-68.5 1t-60.5 5q-33 2 -59 6q-53 12 -92 43q-36 27 -64 75q-25 42 -24 109v19q2 80 3 152v45q0 44 -1 81q-2 66 -4 121v12q0 46 14 84 q14 35 47 66t103 33q68 2 144.5 4t141.5 6l152 8l4 -238l-299 11q-35 -4 -59 -19q-23 -12 -41.5 -36.5t-18.5 -67.5q-2 -43 -2 -84t-2 -74q-2 -37 -2 -70q-2 -27 6 -49q8 -18 26.5 -34.5t55.5 -20.5q43 -4 83 -5t69 -1q35 0 65 2h7q35 0 65 -18q29 -16 51.5 -57.5 t22.5 -125.5t-1 -156.5t-4 -127.5q-2 -66 -2 -119q-4 -41 -26 -74q-18 -29 -54 -51.5t-102 -24.5l-452 -8z" />
<glyph unicode="t" horiz-adv-x="765" d="M23 1231v43v61.5t1 62t3 44.5l714 -12q2 -29 4 -56q2 -23 4.5 -48.5t2.5 -43.5v-27h-301q0 -322 12 -637t12 -620h-201v1233h-251z" />
<glyph unicode="u" horiz-adv-x="782" d="M75 190q1 38 1 48q8 334 12 596q2 111 3 218t1 191t-1 136.5t-3 52.5q-6 2 22.5 5t63.5 7q41 4 98 8q0 -301 2 -547v-206.5t1 -188.5t1 -145.5v-77.5q0 -37 3.5 -59.5t15.5 -36t37.5 -17.5t68.5 -4t65.5 18.5t33.5 40.5q10 27 12 62l16 1161l177 8q2 -301 6 -555 q2 -109 3 -217t3 -203.5t3 -169t1 -110.5v-9q-1 -68 -29 -107q-30 -42 -69 -64q-45 -25 -103 -33q-27 0 -67 2q-35 2 -89.5 2t-130.5 4q-72 2 -104.5 36t-43.5 75q-10 38 -10 72v7z" />
<glyph unicode="v" horiz-adv-x="749" d="M39 1401l164 51l131 -1102l86 557q16 104 31.5 203.5t29 177.5t22.5 125t11 47q4 -2 38 -7t75 -11q47 -8 104 -15l-268 -1431l-299 -8z" />
<glyph unicode="w" horiz-adv-x="1175" d="M45 1423l180 21l94 -1077l193 1073l209 -4l106 -1055l86 1087q53 -2 97 -2q37 -2 68.5 -2h39.5q1 0 1 -5q0 -13 -4 -59q-5 -64 -16.5 -167t-27.5 -235t-33 -269q-39 -324 -92 -733l-264 12l-86 869l-141 -873l-289 4z" />
<glyph unicode="x" horiz-adv-x="747" d="M49 35l133 649l-133 729l172 39l119 -623l184 603l191 -23l-213 -717l153 -680l-161 -12l-129 512l-144 -512z" />
<glyph unicode="y" horiz-adv-x="663" d="M16 1427l162 29l144 -493l167 469l164 -19l-123 -397q-23 -74 -45 -145.5t-38.5 -129t-26.5 -92.5l-10 -35v-28q0 -27 -1 -72t-1 -101.5v-113.5q-2 -137 -2 -311l-168 2l-13 657z" />
<glyph unicode="z" horiz-adv-x="733" d="M43 -4l4 221l436 1014q-119 0 -211 2q-41 0 -78.5 1t-66.5 2t-47 2l-19 1v201l619 -13l4 -188l-432 -1051l432 17v-213z" />
<glyph unicode="{" horiz-adv-x="681" d="M41 676l6 170q33 0 53.5 20.5t30.5 46.5q12 29 19 68q0 -2 2 16q2 16 3 54.5t1 115.5q0 117 41 204t105.5 144.5t142 87t149.5 33.5l4 -180q-86 -4 -131 -45t-66 -90q-25 -57 -26 -129q-2 -47 -2 -94q0 -41 -1 -87t3 -85q2 -39 -8.5 -71t-26.5 -54q-18 -27 -41 -47 q27 -6 41 -24.5t22 -41.5q8 -25 11 -55q-2 -66 -2 -139q0 -63 1 -142.5t5 -163.5t43 -136t84 -83q53 -37 119 -53l-25 -184q-76 2 -134 23.5t-102.5 53t-76 72.5t-52.5 84q-51 98 -61 223q-2 76 -2 146q-2 59 -2 120.5t-4 100.5q-4 37 -23.5 60.5t-42.5 37.5q-27 16 -57 23z " />
<glyph unicode="}" horiz-adv-x="681" d="M41 1452l25 184q76 -2 133 -23.5t101 -53t75 -72.5t53 -84q49 -98 64 -223q-2 -76 0 -146q0 -59 2 -121.5t6 -99.5q4 -39 22.5 -61.5t40.5 -36.5q25 -16 60 -23l-7 -170q-35 0 -54 -21.5t-30 -45.5q-12 -31 -18 -68q-2 2 -4 -16q-2 -16 -2 -54v-116q0 -117 -41 -204 t-105.5 -144.5t-142.5 -87t-149 -33.5l-4 180q86 4 130 45t66 90q23 57 27 129q2 47 2 94v87t-2 85q-4 39 7 71t28 54q18 27 41 47q-27 4 -41.5 23.5t-22.5 42.5q-8 25 -10 55q2 66 2 139q0 63 -1 141.5t-5 164.5q-4 84 -43 136t-84 83q-53 37 -119 53z" />
<glyph unicode="&#xa1;" horiz-adv-x="337" d="M61 -18l39 1204h166v-1182zM100 1327v203l191 -17q-4 -53 -6 -94q-2 -35 -4 -63.5t0 -28.5h-181z" />
<glyph unicode="&#xa3;" horiz-adv-x="819" d="M4 213l158 8l-4 408l-142 -6l-8 227h168q-2 55 0 108q0 47 2 99.5t6 95.5q2 43 17.5 79t37 64.5t45 48t46.5 31.5q20 12 74.5 21.5t109.5 16.5t96 11.5t39 6.5q-4 2 -2 -32t6 -75q4 -49 13 -108q-33 -4 -66 -9q-29 -4 -60.5 -6t-60.5 -6t-48 -17.5t-32 -27.5 q-14 -18 -22 -37l-6 -260l172 -20v-201h-185l27 -406l383 -10v-225h-752z" />
<glyph unicode="&#xa5;" horiz-adv-x="663" d="M16 1427l162 29l144 -493l167 469l164 -19q-47 -154 -90 -293q-18 -59 -37.5 -121.5t-37 -121t-33 -108.5t-25.5 -85l199 8l-11 -172l-208 -4q0 -33 -1 -68.5t-1 -76.5l219 4l-4 -160l-215 -8q-2 -45 -2 -85v-69v-65l-168 2l-5 209l-192 -6l10 172l178 2l-2 145l-184 -2 l4 160l170 6z" />
<glyph unicode="&#xad;" horiz-adv-x="819" d="M27 573l4 224l721 32l-13 -243z" />
<glyph unicode="&#xbf;" horiz-adv-x="827" d="M47 231q2 53 6 138.5t10.5 168.5t12.5 149.5t12 82.5q2 4 9 24.5t20.5 45t36 45t53.5 26.5q31 4 50 8.5t30 8.5q12 4 16 6q18 8 33 20q12 10 22.5 26.5t6.5 41.5q-4 23 -6.5 48.5t-4.5 47.5q-2 25 -2 49l201 9v-193q-2 -51 -16 -92q-12 -35 -41 -69t-84 -44 q-29 -6 -47.5 -10t-30.5 -8l-25 -6q-18 -10 -30 -25q-10 -12 -20.5 -30.5t-8.5 -47.5q0 -25 -1 -83t-4 -120.5t-4 -113.5t-1 -64q0 -10 4 -21t11 -22.5t20.5 -17.5t33.5 -6h97h57q35 -2 49 19.5t16 53.5q2 29 1 65t-5 69q-4 37 -8 77l180 9l39 -236q16 -68 8 -121 q-6 -47 -35.5 -89t-105.5 -54q-147 -25 -248.5 -13.5t-136.5 21.5q-18 6 -47 22.5t-56.5 44t-48 67.5t-18.5 93zM356 1331v203l191 -16q-4 -53 -6 -95q-2 -35 -4 -63.5t0 -28.5h-181z" />
<glyph unicode="&#xc0;" d="M53 0l125 1432h92.5h106.5t102 -2.5t82 -4.5l170 -1425h-176q-6 49 -15.5 122t-18.5 148.5t-19 145t-23 110.5l-176 27q-29 -117 -40 -259t-34 -294h-176zM207 1628l41 240l325 -213l-30 -127z" />
<glyph unicode="&#xc1;" d="M53 0h176q23 152 34 294t40 259l176 -27q12 -41 22.5 -110.5t19.5 -145t18.5 -148.5t15.5 -122h176l-170 1425q-33 2 -82 4.5t-102 2.5h-106.5h-92.5zM213 1632l252 230l113 -191l-328 -143z" />
<glyph unicode="&#xc2;" d="M53 0h176q23 152 34 294t40 259l176 -27q12 -41 22.5 -110.5t19.5 -145t18.5 -148.5t15.5 -122h176l-170 1425q-33 2 -82 4.5t-102 2.5h-106.5h-92.5zM86 1640l272 246l318 -215l-49 -145l-234 145l-203 -145z" />
<glyph unicode="&#xc3;" d="M53 0l125 1432h92.5h106.5t102 -2.5t82 -4.5l170 -1425h-176q-6 49 -15.5 122t-18.5 148.5t-19 145t-23 110.5l-176 27q-29 -117 -40 -259t-34 -294h-176zM55 1612q0 2 17.5 26.5t42 54t54.5 55.5t56 28q27 2 55.5 -9.5t56.5 -27t51.5 -30.5t39.5 -23q14 -8 37.5 -17.5 t47.5 -6.5t45.5 26.5t33.5 83.5l96 -66q-12 -68 -48 -103.5t-78 -51t-81 -16.5t-57 3t-41 19.5t-45.5 33t-43 28.5t-32.5 9q-14 -4 -29.5 -17.5t-29.5 -27.5q-16 -18 -33 -37z" />
<glyph unicode="&#xc4;" d="M53 0l125 1432h92.5h106.5t102 -2.5t82 -4.5l170 -1425h-176q-6 49 -15.5 122t-18.5 148.5t-19 145t-23 110.5l-176 27q-29 -117 -40 -259t-34 -294h-176zM139 1528l4 190h179l-7 -196zM401 1718l170 21l21 -217l-180 -4z" />
<glyph unicode="&#xc5;" d="M53 0l125 1432h92.5h106.5t102 -2.5t82 -4.5l170 -1425h-176q-6 49 -15.5 122t-18.5 148.5t-19 145t-23 110.5l-176 27q-29 -117 -40 -259t-34 -294h-176zM203 1888q-2 0 14 -1t43 -1h61.5h71.5q86 0 197 2l-12 -362q-102 -4 -185 -6q-70 -2 -127 -3t-59 -1l-1 28 q-1 27 -1 69v90v90v68.5t-2 26.5zM344 1640l18 1q17 1 38.5 3.5t39 3.5t15.5 1q-4 0 -3 15t1 34q0 23 2 51q-33 2 -56 4q-20 2 -37.5 4t-15.5 2v-19v-40.5t-1 -41.5z" />
<glyph unicode="&#xc6;" horiz-adv-x="1204" d="M53 0l125 1432q246 8 494 7t497 -5v-154h-460q-4 -51 -1 -145.5t7 -191.5t10 -176t8 -101h385v-154l-385 -51v-25q0 -59 9.5 -141t11.5 -141h415v-154h-614q-6 49 -15.5 122t-18.5 148.5t-19 145t-23 110.5l-176 27q-29 -117 -40 -259t-34 -294h-176z" />
<glyph unicode="&#xc7;" d="M66 240l24 977q2 31 21 59q16 23 49 47.5t92 38.5t129 26.5t133.5 22.5t112.5 16.5t69 6.5l-10 -220l-338 -40q-27 -2 -49 -19q-18 -14 -34.5 -43t-20.5 -82q-2 -35 -3 -103.5t-1 -151.5t1 -172t3 -163.5t7 -127t11 -64.5q10 -16 19.5 -29.5t23.5 -23t38 -14.5t60 -5 q37 0 91.5 4t103.5 8q57 6 119 15l12 -172l-227 -23l10 -112q33 -12 55 -33q20 -16 32.5 -45t2.5 -70t-29.5 -71.5t-44 -51t-50 -32t-50.5 -13.5q-25 -4 -46.5 -2t-37.5 4q-20 2 -37 6l-8 123h35h27.5t21.5 2q14 2 31.5 13.5t21.5 40.5q2 14 -8 21t-22 11q-14 4 -35 4 l-2 195q-279 -25 -303 242z" />
<glyph unicode="&#xc8;" horiz-adv-x="747" d="M72 1434q154 8 321.5 4t321.5 -4v-154h-461q-4 -51 -1 -145.5t7 -191.5t10 -176t9 -101h385v-154l-385 -51v-25q0 -59 9 -141t11 -141h416v-154h-615zM207 1628l41 240l325 -213l-30 -127z" />
<glyph unicode="&#xc9;" horiz-adv-x="747" d="M72 1434l28 -1434h615v154h-416q-2 59 -11 141t-9 141v25l385 51v154h-385q-2 23 -8.5 101.5t-10.5 175.5t-7 191.5t1 145.5h461v154q-154 0 -322 4t-321 -4zM213 1632l252 230l113 -191l-328 -143z" />
<glyph unicode="&#xca;" horiz-adv-x="747" d="M72 1434l28 -1434h615v154h-416q-2 59 -11 141t-9 141v25l385 51v154h-385q-2 23 -8.5 101.5t-10.5 175.5t-7 191.5t1 145.5h461v154q-154 0 -322 4t-321 -4zM86 1640l272 246l318 -215l-49 -145l-234 145l-203 -145z" />
<glyph unicode="&#xcb;" horiz-adv-x="747" d="M72 1434q154 8 321.5 4t321.5 -4v-154h-461q-4 -51 -1 -145.5t7 -191.5t10 -176t9 -101h385v-154l-385 -51v-25q0 -59 9 -141t11 -141h416v-154h-615zM139 1528l4 190h179l-7 -196zM401 1718l170 21l21 -217l-180 -4z" />
<glyph unicode="&#xcc;" horiz-adv-x="380" d="M12 1630l41 240l326 -213l-31 -127zM66 0q4 352 9 706.5t17 729.5h207v-1436h-233z" />
<glyph unicode="&#xcd;" horiz-adv-x="380" d="M27 1626l252 229l112 -190l-328 -143zM66 0h233v1436h-207q-12 -375 -17 -729.5t-9 -706.5z" />
<glyph unicode="&#xce;" horiz-adv-x="380" d="M-98 1634l272 246l318 -215l-50 -145l-233 145l-203 -145zM66 0h233v1436h-207q-12 -375 -17 -729.5t-9 -706.5z" />
<glyph unicode="&#xcf;" horiz-adv-x="380" d="M-43 1556l4 191h178l-6 -197zM66 0q4 352 9 706.5t17 729.5h207v-1436h-233zM219 1747l170 20l21 -217l-181 -4z" />
<glyph unicode="&#xd0;" horiz-adv-x="880" d="M6 657l2 220l189 -3l8 570l434 -27q53 -14 94 -51q35 -31 63.5 -85t26.5 -140q0 -43 -3 -110.5t-6 -147.5t-6 -168t-7 -174q-8 -201 -21 -426q-12 -35 -37 -62q-23 -23 -61.5 -41t-97.5 -16l-402 8l13 662z" />
<glyph unicode="&#xd1;" horiz-adv-x="825" d="M55 1612q0 2 17.5 26.5t42 54t54.5 55.5t56 28q27 2 55.5 -9.5t56.5 -27t51.5 -30.5t39.5 -23q14 -8 37.5 -17.5t47.5 -6.5t45.5 26.5t33.5 83.5l96 -66q-12 -68 -48 -103.5t-78 -51t-81 -16.5t-57 3t-41 19.5t-45.5 33t-43 28.5t-32.5 9q-14 -4 -29.5 -17.5t-29.5 -27.5 q-16 -18 -33 -37zM66 1432l192 -9l283 -936l20 973l201 -24l-29 -1452l-209 8l-262 854l31 -850l-209 4z" />
<glyph unicode="&#xd2;" horiz-adv-x="802" d="M66 240l2 995q2 55 20 98q16 37 51 69t101 34t124 2t103 -2q53 -2 96 -4q49 -8 88 -31q33 -20 60.5 -60.5t27.5 -109.5v-98.5t-1 -145.5t-2 -174t-1 -182q-2 -213 -4 -461q0 -33 -11 -63.5t-30.5 -55t-47.5 -40t-60 -15.5q-41 -2 -100.5 -1t-116.5 3q-68 2 -138 2 q-98 16 -132 80.5t-29 159.5zM207 1628l41 240l325 -213l-30 -127z" />
<glyph unicode="&#xd3;" horiz-adv-x="802" d="M66 240l2 995q2 55 20 98q16 37 51 69t101 34t124 2t103 -2q53 -2 96 -4q49 -8 88 -31q33 -20 60.5 -60.5t27.5 -109.5v-98.5t-1 -145.5t-2 -174t-1 -182q-2 -213 -4 -461q0 -33 -11 -63.5t-30.5 -55t-47.5 -40t-60 -15.5q-41 -2 -100.5 -1t-116.5 3q-68 2 -138 2 q-98 16 -132 80.5t-29 159.5zM213 1632l252 230l113 -191l-328 -143z" />
<glyph unicode="&#xd4;" horiz-adv-x="802" d="M66 240l2 995q2 55 20 98q16 37 51 69t101 34t124 2t103 -2q53 -2 96 -4q49 -8 88 -31q33 -20 60.5 -60.5t27.5 -109.5v-98.5t-1 -145.5t-2 -174t-1 -182q-2 -213 -4 -461q0 -33 -11 -63.5t-30.5 -55t-47.5 -40t-60 -15.5q-41 -2 -100.5 -1t-116.5 3q-68 2 -138 2 q-98 16 -132 80.5t-29 159.5zM86 1640l272 246l318 -215l-49 -145l-234 145l-203 -145z" />
<glyph unicode="&#xd5;" horiz-adv-x="802" d="M55 1612q0 2 17.5 26.5t42 54t54.5 55.5t56 28q27 2 55.5 -9.5t56.5 -27t51.5 -30.5t39.5 -23q14 -8 37.5 -17.5t47.5 -6.5t45.5 26.5t33.5 83.5l96 -66q-12 -68 -48 -103.5t-78 -51t-81 -16.5t-57 3t-41 19.5t-45.5 33t-43 28.5t-32.5 9q-14 -4 -29.5 -17.5t-29.5 -27.5 q-16 -18 -33 -37zM66 240l2 995q2 55 20 98q16 37 51 69t101 34t124 2t103 -2q53 -2 96 -4q49 -8 88 -31q33 -20 60.5 -60.5t27.5 -109.5v-98.5t-1 -145.5t-2 -174t-1 -182q-2 -213 -4 -461q0 -33 -11 -63.5t-30.5 -55t-47.5 -40t-60 -15.5q-41 -2 -100.5 -1t-116.5 3 q-68 2 -138 2q-98 16 -132 80.5t-29 159.5z" />
<glyph unicode="&#xd6;" horiz-adv-x="802" d="M66 240l2 995q2 55 20 98q16 37 51 69t101 34t124 2t103 -2q53 -2 96 -4q49 -8 88 -31q33 -20 60.5 -60.5t27.5 -109.5v-98.5t-1 -145.5t-2 -174t-1 -182q-2 -213 -4 -461q0 -33 -11 -63.5t-30.5 -55t-47.5 -40t-60 -15.5q-41 -2 -100.5 -1t-116.5 3q-68 2 -138 2 q-98 16 -132 80.5t-29 159.5zM139 1528l4 190h179l-7 -196zM401 1718l170 21l21 -217l-180 -4z" />
<glyph unicode="&#xd8;" horiz-adv-x="802" d="M-68 -27l142 164q-4 23 -7.5 48.5t-0.5 54.5l2 995q2 55 20 98q16 37 51 69t101 34t124 2t103 -2q53 -2 96 -4q6 0 15 -2q6 -2 15 -4.5t19 -6.5l76 146l131 -82l-96 -166q16 -39 16 -86v-98.5t-1 -145.5t-2 -174t-1 -182q-2 -213 -4 -461q0 -33 -11 -63.5t-30.5 -55 t-47.5 -40t-60 -15.5q-41 -2 -100.5 -1t-116.5 3q-68 2 -138 2q-39 6 -65 18l-99 -131z" />
<glyph unicode="&#xd9;" horiz-adv-x="782" d="M75 189.5q1 37.5 1 48.5q8 334 12 596q2 111 3 218t1 191t-1 136.5t-3 52.5q-6 2 22.5 5t63.5 7q41 4 98 8q0 -301 2 -547v-206.5t1 -188.5t1 -145.5v-77.5q0 -37 3.5 -59.5t15.5 -36t37.5 -17.5t68.5 -4t65.5 18.5t33.5 40.5q10 27 12 62l16 1161l177 8q2 -301 6 -555 q2 -109 3 -217t3 -203.5t3 -169t1 -110.5q2 -74 -28.5 -116t-69.5 -64q-45 -25 -103 -33q-27 0 -67 2q-35 2 -89.5 2t-130.5 4q-72 2 -104.5 36t-43.5 75t-10 78.5zM207 1628l41 240l325 -213l-30 -127z" />
<glyph unicode="&#xda;" horiz-adv-x="782" d="M75 190q-1 -38 10 -79t44 -75t104 -36q76 -4 130.5 -4t89.5 -2q41 -2 67 -2q57 8 103 33q39 23 69.5 64.5t28.5 115.5q0 37 -1 110.5t-3 169t-3 204t-3 216.5q-4 254 -6 555l-177 -8l-16 -1161q-2 -35 -12 -62q-10 -23 -33 -41t-66 -18t-68.5 4t-37.5 17.5t-15.5 36 t-3.5 59.5v77.5t-1 145.5t-1 188.5v206.5q-2 246 -2 547q-57 -4 -98 -8q-35 -4 -63.5 -7t-22.5 -5q2 0 3 -52.5t1 -136.5t-1 -191.5t-3 -217.5q-4 -262 -12 -596q0 -10 -1 -48zM213 1632l252 230l113 -191l-328 -143z" />
<glyph unicode="&#xdb;" horiz-adv-x="782" d="M75 190q-1 -38 10 -79t44 -75t104 -36q76 -4 130.5 -4t89.5 -2q41 -2 67 -2q57 8 103 33q39 23 69.5 64.5t28.5 115.5q0 37 -1 110.5t-3 169t-3 204t-3 216.5q-4 254 -6 555l-177 -8l-16 -1161q-2 -35 -12 -62q-10 -23 -33 -41t-66 -18t-68.5 4t-37.5 17.5t-15.5 36 t-3.5 59.5v77.5t-1 145.5t-1 188.5v206.5q-2 246 -2 547q-57 -4 -98 -8q-35 -4 -63.5 -7t-22.5 -5q2 0 3 -52.5t1 -136.5t-1 -191.5t-3 -217.5q-4 -262 -12 -596q0 -10 -1 -48zM86 1640l272 246l318 -215l-49 -145l-234 145l-203 -145z" />
<glyph unicode="&#xdc;" horiz-adv-x="782" d="M75 189.5q1 37.5 1 48.5q8 334 12 596q2 111 3 218t1 191t-1 136.5t-3 52.5q-6 2 22.5 5t63.5 7q41 4 98 8q0 -301 2 -547v-206.5t1 -188.5t1 -145.5v-77.5q0 -37 3.5 -59.5t15.5 -36t37.5 -17.5t68.5 -4t65.5 18.5t33.5 40.5q10 27 12 62l16 1161l177 8q2 -301 6 -555 q2 -109 3 -217t3 -203.5t3 -169t1 -110.5q2 -74 -28.5 -116t-69.5 -64q-45 -25 -103 -33q-27 0 -67 2q-35 2 -89.5 2t-130.5 4q-72 2 -104.5 36t-43.5 75t-10 78.5zM139 1528l4 190h179l-7 -196zM401 1718l170 21l21 -217l-180 -4z" />
<glyph unicode="&#xdd;" horiz-adv-x="663" d="M16 1427l162 29l144 -493l167 469l164 -19l-123 -397q-23 -74 -45 -145.5t-38.5 -129t-26.5 -92.5l-10 -35v-28q0 -27 -1 -72t-1 -101.5v-113.5q-2 -137 -2 -311l-168 2l-13 657zM213 1632l252 230l113 -191l-328 -143z" />
<glyph unicode="&#xde;" horiz-adv-x="694" d="M51 1432l182 8l11 -281q74 6 146.5 4t132 -21.5t98 -60.5t47.5 -112q25 -236 0 -469q-6 -63 -52.5 -110.5t-106.5 -78t-126 -46t-113 -13.5l2 -252h-172z" />
<glyph unicode="&#xe0;" d="M53 0l125 1432h92.5h106.5t102 -2.5t82 -4.5l170 -1425h-176q-6 49 -15.5 122t-18.5 148.5t-19 145t-23 110.5l-176 27q-29 -117 -40 -259t-34 -294h-176zM207 1628l41 240l325 -213l-30 -127z" />
<glyph unicode="&#xe1;" d="M53 0h176q23 152 34 294t40 259l176 -27q12 -41 22.5 -110.5t19.5 -145t18.5 -148.5t15.5 -122h176l-170 1425q-33 2 -82 4.5t-102 2.5h-106.5h-92.5zM213 1632l252 230l113 -191l-328 -143z" />
<glyph unicode="&#xe2;" d="M53 0h176q23 152 34 294t40 259l176 -27q12 -41 22.5 -110.5t19.5 -145t18.5 -148.5t15.5 -122h176l-170 1425q-33 2 -82 4.5t-102 2.5h-106.5h-92.5zM86 1640l272 246l318 -215l-49 -145l-234 145l-203 -145z" />
<glyph unicode="&#xe3;" d="M53 0l125 1432h92.5h106.5t102 -2.5t82 -4.5l170 -1425h-176q-6 49 -15.5 122t-18.5 148.5t-19 145t-23 110.5l-176 27q-29 -117 -40 -259t-34 -294h-176zM55 1612q0 2 17.5 26.5t42 54t54.5 55.5t56 28q27 2 55.5 -9.5t56.5 -27t51.5 -30.5t39.5 -23q14 -8 37.5 -17.5 t47.5 -6.5t45.5 26.5t33.5 83.5l96 -66q-12 -68 -48 -103.5t-78 -51t-81 -16.5t-57 3t-41 19.5t-45.5 33t-43 28.5t-32.5 9q-14 -4 -29.5 -17.5t-29.5 -27.5q-16 -18 -33 -37z" />
<glyph unicode="&#xe4;" d="M53 0l125 1432h92.5h106.5t102 -2.5t82 -4.5l170 -1425h-176q-6 49 -15.5 122t-18.5 148.5t-19 145t-23 110.5l-176 27q-29 -117 -40 -259t-34 -294h-176zM139 1528l4 190h179l-7 -196zM401 1718l170 21l21 -217l-180 -4z" />
<glyph unicode="&#xe5;" d="M53 0l125 1432h92.5h106.5t102 -2.5t82 -4.5l170 -1425h-176q-6 49 -15.5 122t-18.5 148.5t-19 145t-23 110.5l-176 27q-29 -117 -40 -259t-34 -294h-176zM203 1888q-2 0 14 -1t43 -1h61.5h71.5q86 0 197 2l-12 -362q-102 -4 -185 -6q-70 -2 -127 -3t-59 -1l-1 28 q-1 27 -1 69v90v90v68.5t-2 26.5zM344 1640l18 1q17 1 38.5 3.5t39 3.5t15.5 1q-4 0 -3 15t1 34q0 23 2 51q-33 2 -56 4q-20 2 -37.5 4t-15.5 2v-19v-40.5t-1 -41.5z" />
<glyph unicode="&#xe6;" horiz-adv-x="1204" d="M53 0l125 1432q246 8 494 7t497 -5v-154h-460q-4 -51 -1 -145.5t7 -191.5t10 -176t8 -101h385v-154l-385 -51v-25q0 -59 9.5 -141t11.5 -141h415v-154h-614q-6 49 -15.5 122t-18.5 148.5t-19 145t-23 110.5l-176 27q-29 -117 -40 -259t-34 -294h-176z" />
<glyph unicode="&#xe7;" d="M66 240l24 977q2 31 21 59q16 23 49 47.5t92 38.5t129 26.5t133.5 22.5t112.5 16.5t69 6.5l-10 -220l-338 -40q-27 -2 -49 -19q-18 -14 -34.5 -43t-20.5 -82q-2 -35 -3 -103.5t-1 -151.5t1 -172t3 -163.5t7 -127t11 -64.5q10 -16 19.5 -29.5t23.5 -23t38 -14.5t60 -5 q37 0 91.5 4t103.5 8q57 6 119 15l12 -172l-227 -23l10 -112q33 -12 55 -33q20 -16 32.5 -45t2.5 -70t-29.5 -71.5t-44 -51t-50 -32t-50.5 -13.5q-25 -4 -46.5 -2t-37.5 4q-20 2 -37 6l-8 123h35h27.5t21.5 2q14 2 31.5 13.5t21.5 40.5q2 14 -8 21t-22 11q-14 4 -35 4 l-2 195q-279 -25 -303 242z" />
<glyph unicode="&#xe8;" horiz-adv-x="747" d="M72 1434q154 8 321.5 4t321.5 -4v-154h-461q-4 -51 -1 -145.5t7 -191.5t10 -176t9 -101h385v-154l-385 -51v-25q0 -59 9 -141t11 -141h416v-154h-615zM207 1628l41 240l325 -213l-30 -127z" />
<glyph unicode="&#xe9;" horiz-adv-x="747" d="M72 1434l28 -1434h615v154h-416q-2 59 -11 141t-9 141v25l385 51v154h-385q-2 23 -8.5 101.5t-10.5 175.5t-7 191.5t1 145.5h461v154q-154 0 -322 4t-321 -4zM213 1632l252 230l113 -191l-328 -143z" />
<glyph unicode="&#xea;" horiz-adv-x="747" d="M72 1434l28 -1434h615v154h-416q-2 59 -11 141t-9 141v25l385 51v154h-385q-2 23 -8.5 101.5t-10.5 175.5t-7 191.5t1 145.5h461v154q-154 0 -322 4t-321 -4zM86 1640l272 246l318 -215l-49 -145l-234 145l-203 -145z" />
<glyph unicode="&#xeb;" horiz-adv-x="747" d="M72 1434q154 8 321.5 4t321.5 -4v-154h-461q-4 -51 -1 -145.5t7 -191.5t10 -176t9 -101h385v-154l-385 -51v-25q0 -59 9 -141t11 -141h416v-154h-615zM139 1528l4 190h179l-7 -196zM401 1718l170 21l21 -217l-180 -4z" />
<glyph unicode="&#xec;" horiz-adv-x="380" d="M12 1630l41 240l326 -213l-31 -127zM66 0q4 352 9 706.5t17 729.5h207v-1436h-233z" />
<glyph unicode="&#xed;" horiz-adv-x="380" d="M27 1626l252 229l112 -190l-328 -143zM66 0h233v1436h-207q-12 -375 -17 -729.5t-9 -706.5z" />
<glyph unicode="&#xee;" horiz-adv-x="380" d="M-98 1634l272 246l318 -215l-50 -145l-233 145l-203 -145zM66 0h233v1436h-207q-12 -375 -17 -729.5t-9 -706.5z" />
<glyph unicode="&#xef;" horiz-adv-x="380" d="M-43 1556l4 191h178l-6 -197zM66 0q4 352 9 706.5t17 729.5h207v-1436h-233zM219 1747l170 20l21 -217l-181 -4z" />
<glyph unicode="&#xf0;" horiz-adv-x="880" d="M6 657l2 220l189 -3l8 570l434 -27q53 -14 94 -51q35 -31 63.5 -85t26.5 -140q0 -43 -3 -110.5t-6 -147.5t-6 -168t-7 -174q-8 -201 -21 -426q-12 -35 -37 -62q-23 -23 -61.5 -41t-97.5 -16l-402 8l13 662z" />
<glyph unicode="&#xf1;" horiz-adv-x="825" d="M55 1612q0 2 17.5 26.5t42 54t54.5 55.5t56 28q27 2 55.5 -9.5t56.5 -27t51.5 -30.5t39.5 -23q14 -8 37.5 -17.5t47.5 -6.5t45.5 26.5t33.5 83.5l96 -66q-12 -68 -48 -103.5t-78 -51t-81 -16.5t-57 3t-41 19.5t-45.5 33t-43 28.5t-32.5 9q-14 -4 -29.5 -17.5t-29.5 -27.5 q-16 -18 -33 -37zM66 1432l192 -9l283 -936l20 973l201 -24l-29 -1452l-209 8l-262 854l31 -850l-209 4z" />
<glyph unicode="&#xf2;" horiz-adv-x="802" d="M66 240l2 995q2 55 20 98q16 37 51 69t101 34t124 2t103 -2q53 -2 96 -4q49 -8 88 -31q33 -20 60.5 -60.5t27.5 -109.5v-98.5t-1 -145.5t-2 -174t-1 -182q-2 -213 -4 -461q0 -33 -11 -63.5t-30.5 -55t-47.5 -40t-60 -15.5q-41 -2 -100.5 -1t-116.5 3q-68 2 -138 2 q-98 16 -132 80.5t-29 159.5zM207 1628l41 240l325 -213l-30 -127z" />
<glyph unicode="&#xf3;" horiz-adv-x="802" d="M66 240l2 995q2 55 20 98q16 37 51 69t101 34t124 2t103 -2q53 -2 96 -4q49 -8 88 -31q33 -20 60.5 -60.5t27.5 -109.5v-98.5t-1 -145.5t-2 -174t-1 -182q-2 -213 -4 -461q0 -33 -11 -63.5t-30.5 -55t-47.5 -40t-60 -15.5q-41 -2 -100.5 -1t-116.5 3q-68 2 -138 2 q-98 16 -132 80.5t-29 159.5zM213 1632l252 230l113 -191l-328 -143z" />
<glyph unicode="&#xf4;" horiz-adv-x="802" d="M66 240l2 995q2 55 20 98q16 37 51 69t101 34t124 2t103 -2q53 -2 96 -4q49 -8 88 -31q33 -20 60.5 -60.5t27.5 -109.5v-98.5t-1 -145.5t-2 -174t-1 -182q-2 -213 -4 -461q0 -33 -11 -63.5t-30.5 -55t-47.5 -40t-60 -15.5q-41 -2 -100.5 -1t-116.5 3q-68 2 -138 2 q-98 16 -132 80.5t-29 159.5zM86 1640l272 246l318 -215l-49 -145l-234 145l-203 -145z" />
<glyph unicode="&#xf5;" horiz-adv-x="802" d="M55 1612q0 2 17.5 26.5t42 54t54.5 55.5t56 28q27 2 55.5 -9.5t56.5 -27t51.5 -30.5t39.5 -23q14 -8 37.5 -17.5t47.5 -6.5t45.5 26.5t33.5 83.5l96 -66q-12 -68 -48 -103.5t-78 -51t-81 -16.5t-57 3t-41 19.5t-45.5 33t-43 28.5t-32.5 9q-14 -4 -29.5 -17.5t-29.5 -27.5 q-16 -18 -33 -37zM66 240l2 995q2 55 20 98q16 37 51 69t101 34t124 2t103 -2q53 -2 96 -4q49 -8 88 -31q33 -20 60.5 -60.5t27.5 -109.5v-98.5t-1 -145.5t-2 -174t-1 -182q-2 -213 -4 -461q0 -33 -11 -63.5t-30.5 -55t-47.5 -40t-60 -15.5q-41 -2 -100.5 -1t-116.5 3 q-68 2 -138 2q-98 16 -132 80.5t-29 159.5z" />
<glyph unicode="&#xf6;" horiz-adv-x="802" d="M66 240l2 995q2 55 20 98q16 37 51 69t101 34t124 2t103 -2q53 -2 96 -4q49 -8 88 -31q33 -20 60.5 -60.5t27.5 -109.5v-98.5t-1 -145.5t-2 -174t-1 -182q-2 -213 -4 -461q0 -33 -11 -63.5t-30.5 -55t-47.5 -40t-60 -15.5q-41 -2 -100.5 -1t-116.5 3q-68 2 -138 2 q-98 16 -132 80.5t-29 159.5zM139 1528l4 190h179l-7 -196zM401 1718l170 21l21 -217l-180 -4z" />
<glyph unicode="&#xf8;" horiz-adv-x="802" d="M-68 -27l142 164q-4 23 -7.5 48.5t-0.5 54.5l2 995q2 55 20 98q16 37 51 69t101 34t124 2t103 -2q53 -2 96 -4q6 0 15 -2q6 -2 15 -4.5t19 -6.5l76 146l131 -82l-96 -166q16 -39 16 -86v-98.5t-1 -145.5t-2 -174t-1 -182q-2 -213 -4 -461q0 -33 -11 -63.5t-30.5 -55 t-47.5 -40t-60 -15.5q-41 -2 -100.5 -1t-116.5 3q-68 2 -138 2q-39 6 -65 18l-99 -131z" />
<glyph unicode="&#xf9;" horiz-adv-x="782" d="M75 189.5q1 37.5 1 48.5q8 334 12 596q2 111 3 218t1 191t-1 136.5t-3 52.5q-6 2 22.5 5t63.5 7q41 4 98 8q0 -301 2 -547v-206.5t1 -188.5t1 -145.5v-77.5q0 -37 3.5 -59.5t15.5 -36t37.5 -17.5t68.5 -4t65.5 18.5t33.5 40.5q10 27 12 62l16 1161l177 8q2 -301 6 -555 q2 -109 3 -217t3 -203.5t3 -169t1 -110.5q2 -74 -28.5 -116t-69.5 -64q-45 -25 -103 -33q-27 0 -67 2q-35 2 -89.5 2t-130.5 4q-72 2 -104.5 36t-43.5 75t-10 78.5zM207 1628l41 240l325 -213l-30 -127z" />
<glyph unicode="&#xfa;" horiz-adv-x="782" d="M75 190q-1 -38 10 -79t44 -75t104 -36q76 -4 130.5 -4t89.5 -2q41 -2 67 -2q57 8 103 33q39 23 69.5 64.5t28.5 115.5q0 37 -1 110.5t-3 169t-3 204t-3 216.5q-4 254 -6 555l-177 -8l-16 -1161q-2 -35 -12 -62q-10 -23 -33 -41t-66 -18t-68.5 4t-37.5 17.5t-15.5 36 t-3.5 59.5v77.5t-1 145.5t-1 188.5v206.5q-2 246 -2 547q-57 -4 -98 -8q-35 -4 -63.5 -7t-22.5 -5q2 0 3 -52.5t1 -136.5t-1 -191.5t-3 -217.5q-4 -262 -12 -596q0 -10 -1 -48zM213 1632l252 230l113 -191l-328 -143z" />
<glyph unicode="&#xfb;" horiz-adv-x="782" d="M75 190q-1 -38 10 -79t44 -75t104 -36q76 -4 130.5 -4t89.5 -2q41 -2 67 -2q57 8 103 33q39 23 69.5 64.5t28.5 115.5q0 37 -1 110.5t-3 169t-3 204t-3 216.5q-4 254 -6 555l-177 -8l-16 -1161q-2 -35 -12 -62q-10 -23 -33 -41t-66 -18t-68.5 4t-37.5 17.5t-15.5 36 t-3.5 59.5v77.5t-1 145.5t-1 188.5v206.5q-2 246 -2 547q-57 -4 -98 -8q-35 -4 -63.5 -7t-22.5 -5q2 0 3 -52.5t1 -136.5t-1 -191.5t-3 -217.5q-4 -262 -12 -596q0 -10 -1 -48zM86 1640l272 246l318 -215l-49 -145l-234 145l-203 -145z" />
<glyph unicode="&#xfc;" horiz-adv-x="782" d="M75 189.5q1 37.5 1 48.5q8 334 12 596q2 111 3 218t1 191t-1 136.5t-3 52.5q-6 2 22.5 5t63.5 7q41 4 98 8q0 -301 2 -547v-206.5t1 -188.5t1 -145.5v-77.5q0 -37 3.5 -59.5t15.5 -36t37.5 -17.5t68.5 -4t65.5 18.5t33.5 40.5q10 27 12 62l16 1161l177 8q2 -301 6 -555 q2 -109 3 -217t3 -203.5t3 -169t1 -110.5q2 -74 -28.5 -116t-69.5 -64q-45 -25 -103 -33q-27 0 -67 2q-35 2 -89.5 2t-130.5 4q-72 2 -104.5 36t-43.5 75t-10 78.5zM139 1528l4 190h179l-7 -196zM401 1718l170 21l21 -217l-180 -4z" />
<glyph unicode="&#xfd;" horiz-adv-x="663" d="M16 1427l162 29l144 -493l167 469l164 -19l-123 -397q-23 -74 -45 -145.5t-38.5 -129t-26.5 -92.5l-10 -35v-28q0 -27 -1 -72t-1 -101.5v-113.5q-2 -137 -2 -311l-168 2l-13 657zM213 1632l252 230l113 -191l-328 -143z" />
<glyph unicode="&#xfe;" horiz-adv-x="694" d="M51 1432l182 8l11 -281q74 6 146.5 4t132 -21.5t98 -60.5t47.5 -112q25 -236 0 -469q-6 -63 -52.5 -110.5t-106.5 -78t-126 -46t-113 -13.5l2 -252h-172z" />
<glyph unicode="&#xff;" horiz-adv-x="663" d="M16 1427l162 29l144 -493l167 469l164 -19l-123 -397q-23 -74 -45 -145.5t-38.5 -129t-26.5 -92.5l-10 -35v-28q0 -27 -1 -72t-1 -101.5v-113.5q-2 -137 -2 -311l-168 2l-13 657zM139 1528l4 190h179l-7 -196zM401 1718l170 21l21 -217l-180 -4z" />
<glyph unicode="&#x152;" horiz-adv-x="1277" d="M66 240l2 995q2 55 20 98q16 37 51 69t101 34l962 -2v-154h-461q-4 -51 -1 -145.5t7.5 -191.5t10.5 -176t8 -101h385v-154l-385 -51v-25q0 -59 9 -141t11 -141h416v-154q-274 -2 -457.5 -1t-300.5 1h-217q-98 16 -132 80.5t-29 159.5z" />
<glyph unicode="&#x153;" horiz-adv-x="1277" d="M66 240l2 995q2 55 20 98q16 37 51 69t101 34l962 -2v-154h-461q-4 -51 -1 -145.5t7.5 -191.5t10.5 -176t8 -101h385v-154l-385 -51v-25q0 -59 9 -141t11 -141h416v-154q-274 -2 -457.5 -1t-300.5 1h-217q-98 16 -132 80.5t-29 159.5z" />
<glyph unicode="&#x178;" horiz-adv-x="663" d="M16 1427l162 29l144 -493l167 469l164 -19l-123 -397q-23 -74 -45 -145.5t-38.5 -129t-26.5 -92.5l-10 -35v-28q0 -27 -1 -72t-1 -101.5v-113.5q-2 -137 -2 -311l-168 2l-13 657zM139 1528l4 190h179l-7 -196zM401 1718l170 21l21 -217l-180 -4z" />
<glyph unicode="&#x2000;" horiz-adv-x="944" />
<glyph unicode="&#x2001;" horiz-adv-x="1888" />
<glyph unicode="&#x2002;" horiz-adv-x="944" />
<glyph unicode="&#x2003;" horiz-adv-x="1888" />
<glyph unicode="&#x2004;" horiz-adv-x="629" />
<glyph unicode="&#x2005;" horiz-adv-x="472" />
<glyph unicode="&#x2006;" horiz-adv-x="314" />
<glyph unicode="&#x2007;" horiz-adv-x="314" />
<glyph unicode="&#x2008;" horiz-adv-x="236" />
<glyph unicode="&#x2009;" horiz-adv-x="377" />
<glyph unicode="&#x200a;" horiz-adv-x="104" />
<glyph unicode="&#x2010;" horiz-adv-x="819" d="M27 573l4 224l721 32l-13 -243z" />
<glyph unicode="&#x2011;" horiz-adv-x="819" d="M27 573l4 224l721 32l-13 -243z" />
<glyph unicode="&#x2012;" horiz-adv-x="819" d="M27 573l4 224l721 32l-13 -243z" />
<glyph unicode="&#x2013;" horiz-adv-x="1118" d="M27 573l6 224l1018 32l-18 -243z" />
<glyph unicode="&#x2014;" horiz-adv-x="2142" d="M27 573l11 224l2037 32l-37 -243z" />
<glyph unicode="&#x2018;" horiz-adv-x="389" d="M94 1155v207q2 43 10 86q6 35 20.5 75t41.5 68l86 -88q-16 -23 -25.5 -46t-13.5 -44q-6 -23 -8 -47l96 -2l4 -203z" />
<glyph unicode="&#x2019;" horiz-adv-x="389" d="M94 1585l211 6v-207q-2 -47 -10 -88q-8 -37 -21.5 -74.5t-40.5 -66.5l-86 88q16 23 25.5 46.5t13.5 43.5q6 23 9 47l-97 2z" />
<glyph unicode="&#x201c;" horiz-adv-x="655" d="M94 1155l6 205q4 43 13 86q8 35 22.5 75t42.5 68l84 -90q-16 -23 -27.5 -46t-15.5 -44q-8 -23 -8 -47l96 -4l-2 -203h-211zM375 1178v206q2 43 10 86q6 35 20.5 75t40.5 69l86 -88q-16 -23 -25 -46.5t-13 -43.5q-6 -23 -9 -47l97 -3l4 -202z" />
<glyph unicode="&#x201d;" horiz-adv-x="655" d="M94 1585l211 6v-207q-2 -47 -10 -88q-8 -37 -21.5 -74.5t-40.5 -66.5l-86 88q16 23 25.5 46.5t13.5 43.5q6 23 9 47l-97 2zM373 1411l2 203h211l-6 -205q-4 -47 -13 -88q-8 -37 -23.5 -75t-41.5 -66l-84 90q16 23 26.5 46t16.5 44q6 23 8 47z" />
<glyph unicode="&#x202f;" horiz-adv-x="377" />
<glyph unicode="&#x205f;" horiz-adv-x="472" />
<glyph unicode="&#x20ac;" horiz-adv-x="858" d="M43 983l162 8q-4 29 -6 68q-6 68 -6 196q0 63 34.5 97t75.5 49q49 16 111 16l422 4l-7 -182q-68 0 -133 -2q-55 -2 -115.5 -4t-101.5 -6t-60.5 -19.5t-27.5 -31.5q-8 -20 -6 -43l4 -138h229l-12 -209h-213l8 -145h209l-8 -205h-184q-4 16 -4 13q-2 -4 0 -28t8 -83 q6 -61 27.5 -91t44.5 -40q27 -12 61 -10l291 8l-4 -174q-59 -2 -127 -4q-57 -2 -131 -4.5t-152 -6.5t-119 30t-59 75q-23 49 -23 110l-14 201l-166 4l-4 178l170 15l-8 166l-158 4z" />
<glyph unicode="&#xe000;" horiz-adv-x="1454" d="M0 0v1454h1454v-1454h-1454z" />
</font>
</defs>
</svg>
